<mxfile host="app.diagrams.net" modified="2024-05-20T14:44:45.932Z" agent="Mozilla/5.0 (Windows NT 10.0; Win64; x64) AppleWebKit/537.36 (KHTML, like Gecko) Chrome/122.0.0.0 YaBrowser/24.4.0.0 Safari/537.36" etag="aT16BEpnbboXUpF16mvn" version="24.4.4" type="device">
  <diagram name="Страница — 1" id="NoJ2F_UcuthyjyOWWbLJ">
    <mxGraphModel dx="1912" dy="1023" grid="1" gridSize="10" guides="1" tooltips="1" connect="1" arrows="1" fold="1" page="1" pageScale="1" pageWidth="827" pageHeight="1169" math="0" shadow="0">
      <root>
        <mxCell id="0" />
        <mxCell id="1" parent="0" />
        <mxCell id="gAhSIkeBQU7hhcyOCbbC-3" value="" style="whiteSpace=wrap;html=1;" vertex="1" parent="1">
          <mxGeometry x="30" y="160" width="970" height="640" as="geometry" />
        </mxCell>
        <mxCell id="gAhSIkeBQU7hhcyOCbbC-5" value="" style="whiteSpace=wrap;html=1;" vertex="1" parent="1">
          <mxGeometry x="30" y="160" width="970" height="50" as="geometry" />
        </mxCell>
        <mxCell id="gAhSIkeBQU7hhcyOCbbC-12" value="" style="endArrow=none;html=1;rounded=0;entryX=0.25;entryY=0;entryDx=0;entryDy=0;exitX=0.289;exitY=1.003;exitDx=0;exitDy=0;exitPerimeter=0;" edge="1" parent="1" source="gAhSIkeBQU7hhcyOCbbC-3">
          <mxGeometry width="50" height="50" relative="1" as="geometry">
            <mxPoint x="310" y="751.1800000000001" as="sourcePoint" />
            <mxPoint x="310.2400000000007" y="160" as="targetPoint" />
          </mxGeometry>
        </mxCell>
        <mxCell id="gAhSIkeBQU7hhcyOCbbC-14" value="" style="endArrow=none;html=1;rounded=0;entryX=0.25;entryY=0;entryDx=0;entryDy=0;exitX=0.469;exitY=1.002;exitDx=0;exitDy=0;exitPerimeter=0;" edge="1" parent="1">
          <mxGeometry width="50" height="50" relative="1" as="geometry">
            <mxPoint x="581.0700000000003" y="801.1800000000001" as="sourcePoint" />
            <mxPoint x="580" y="210" as="targetPoint" />
          </mxGeometry>
        </mxCell>
        <mxCell id="gAhSIkeBQU7hhcyOCbbC-17" value="&lt;font style=&quot;font-size: 16px;&quot;&gt;Пользователь&lt;/font&gt;" style="text;strokeColor=none;align=center;fillColor=none;html=1;verticalAlign=middle;whiteSpace=wrap;rounded=0;" vertex="1" parent="1">
          <mxGeometry x="120" y="170" width="130" height="30" as="geometry" />
        </mxCell>
        <mxCell id="gAhSIkeBQU7hhcyOCbbC-18" value="&lt;span style=&quot;font-size: 16px;&quot;&gt;Администратор&lt;/span&gt;" style="text;strokeColor=none;align=center;fillColor=none;html=1;verticalAlign=middle;whiteSpace=wrap;rounded=0;" vertex="1" parent="1">
          <mxGeometry x="390" y="170" width="130" height="30" as="geometry" />
        </mxCell>
        <mxCell id="gAhSIkeBQU7hhcyOCbbC-19" value="&lt;span style=&quot;font-size: 16px;&quot;&gt;Кондитер&lt;/span&gt;" style="text;strokeColor=none;align=center;fillColor=none;html=1;verticalAlign=middle;whiteSpace=wrap;rounded=0;" vertex="1" parent="1">
          <mxGeometry x="620" y="170" width="130" height="30" as="geometry" />
        </mxCell>
        <mxCell id="gAhSIkeBQU7hhcyOCbbC-20" value="&lt;span style=&quot;font-size: 16px;&quot;&gt;Курьер&lt;/span&gt;" style="text;strokeColor=none;align=center;fillColor=none;html=1;verticalAlign=middle;whiteSpace=wrap;rounded=0;" vertex="1" parent="1">
          <mxGeometry x="827" y="170" width="130" height="30" as="geometry" />
        </mxCell>
        <mxCell id="gAhSIkeBQU7hhcyOCbbC-29" style="edgeStyle=orthogonalEdgeStyle;rounded=0;orthogonalLoop=1;jettySize=auto;html=1;entryX=0.5;entryY=0;entryDx=0;entryDy=0;" edge="1" parent="1" source="gAhSIkeBQU7hhcyOCbbC-24" target="gAhSIkeBQU7hhcyOCbbC-28">
          <mxGeometry relative="1" as="geometry" />
        </mxCell>
        <mxCell id="gAhSIkeBQU7hhcyOCbbC-24" value="&lt;font style=&quot;font-size: 14px;&quot;&gt;Выбор товара&lt;/font&gt;" style="whiteSpace=wrap;html=1;" vertex="1" parent="1">
          <mxGeometry x="100" y="280" width="140" height="40" as="geometry" />
        </mxCell>
        <mxCell id="gAhSIkeBQU7hhcyOCbbC-26" value="" style="ellipse;html=1;shape=startState;fillColor=#000000;strokeColor=#ff0000;" vertex="1" parent="1">
          <mxGeometry x="155" y="230" width="30" height="30" as="geometry" />
        </mxCell>
        <mxCell id="gAhSIkeBQU7hhcyOCbbC-27" value="" style="edgeStyle=orthogonalEdgeStyle;html=1;verticalAlign=bottom;endArrow=open;endSize=8;strokeColor=#ff0000;rounded=0;entryX=0.5;entryY=0;entryDx=0;entryDy=0;" edge="1" source="gAhSIkeBQU7hhcyOCbbC-26" parent="1" target="gAhSIkeBQU7hhcyOCbbC-24">
          <mxGeometry relative="1" as="geometry">
            <mxPoint x="185" y="280" as="targetPoint" />
          </mxGeometry>
        </mxCell>
        <mxCell id="gAhSIkeBQU7hhcyOCbbC-34" style="edgeStyle=orthogonalEdgeStyle;rounded=0;orthogonalLoop=1;jettySize=auto;html=1;entryX=0.5;entryY=0;entryDx=0;entryDy=0;" edge="1" parent="1" source="gAhSIkeBQU7hhcyOCbbC-28" target="gAhSIkeBQU7hhcyOCbbC-31">
          <mxGeometry relative="1" as="geometry" />
        </mxCell>
        <mxCell id="gAhSIkeBQU7hhcyOCbbC-28" value="&lt;span style=&quot;font-size: 14px;&quot;&gt;Формирование заказа&lt;/span&gt;" style="whiteSpace=wrap;html=1;" vertex="1" parent="1">
          <mxGeometry x="100" y="350" width="140" height="40" as="geometry" />
        </mxCell>
        <mxCell id="gAhSIkeBQU7hhcyOCbbC-37" style="edgeStyle=orthogonalEdgeStyle;rounded=0;orthogonalLoop=1;jettySize=auto;html=1;entryX=0.5;entryY=0;entryDx=0;entryDy=0;" edge="1" parent="1" source="gAhSIkeBQU7hhcyOCbbC-31" target="gAhSIkeBQU7hhcyOCbbC-35">
          <mxGeometry relative="1" as="geometry">
            <Array as="points">
              <mxPoint x="101" y="445" />
            </Array>
          </mxGeometry>
        </mxCell>
        <mxCell id="gAhSIkeBQU7hhcyOCbbC-38" style="edgeStyle=orthogonalEdgeStyle;rounded=0;orthogonalLoop=1;jettySize=auto;html=1;entryX=0.5;entryY=0;entryDx=0;entryDy=0;exitX=1;exitY=0.5;exitDx=0;exitDy=0;" edge="1" parent="1" source="gAhSIkeBQU7hhcyOCbbC-31" target="gAhSIkeBQU7hhcyOCbbC-36">
          <mxGeometry relative="1" as="geometry">
            <Array as="points">
              <mxPoint x="234" y="445" />
            </Array>
          </mxGeometry>
        </mxCell>
        <mxCell id="gAhSIkeBQU7hhcyOCbbC-31" value="" style="rhombus;whiteSpace=wrap;html=1;" vertex="1" parent="1">
          <mxGeometry x="137.19" y="420" width="65.63" height="50" as="geometry" />
        </mxCell>
        <mxCell id="gAhSIkeBQU7hhcyOCbbC-32" value="" style="endArrow=none;html=1;rounded=0;entryX=0.783;entryY=-0.014;entryDx=0;entryDy=0;entryPerimeter=0;exitX=0.783;exitY=1.003;exitDx=0;exitDy=0;exitPerimeter=0;" edge="1" parent="1" source="gAhSIkeBQU7hhcyOCbbC-3" target="gAhSIkeBQU7hhcyOCbbC-5">
          <mxGeometry width="50" height="50" relative="1" as="geometry">
            <mxPoint x="790" y="790" as="sourcePoint" />
            <mxPoint x="790.0000000000005" y="200" as="targetPoint" />
          </mxGeometry>
        </mxCell>
        <mxCell id="gAhSIkeBQU7hhcyOCbbC-40" style="edgeStyle=orthogonalEdgeStyle;rounded=0;orthogonalLoop=1;jettySize=auto;html=1;entryX=0;entryY=0.75;entryDx=0;entryDy=0;exitX=0.5;exitY=1;exitDx=0;exitDy=0;" edge="1" parent="1" source="gAhSIkeBQU7hhcyOCbbC-35" target="gAhSIkeBQU7hhcyOCbbC-39">
          <mxGeometry relative="1" as="geometry">
            <Array as="points">
              <mxPoint x="101" y="610" />
              <mxPoint x="360" y="610" />
              <mxPoint x="360" y="300" />
            </Array>
          </mxGeometry>
        </mxCell>
        <mxCell id="gAhSIkeBQU7hhcyOCbbC-35" value="&lt;span style=&quot;font-size: 14px;&quot;&gt;Самовывоз&lt;/span&gt;" style="whiteSpace=wrap;html=1;" vertex="1" parent="1">
          <mxGeometry x="47.82" y="500" width="107.18" height="30" as="geometry" />
        </mxCell>
        <mxCell id="gAhSIkeBQU7hhcyOCbbC-41" style="edgeStyle=orthogonalEdgeStyle;rounded=0;orthogonalLoop=1;jettySize=auto;html=1;entryX=0;entryY=0.25;entryDx=0;entryDy=0;exitX=0.5;exitY=1;exitDx=0;exitDy=0;" edge="1" parent="1" source="gAhSIkeBQU7hhcyOCbbC-36" target="gAhSIkeBQU7hhcyOCbbC-39">
          <mxGeometry relative="1" as="geometry" />
        </mxCell>
        <mxCell id="gAhSIkeBQU7hhcyOCbbC-36" value="&lt;span style=&quot;font-size: 14px;&quot;&gt;Доставка&lt;/span&gt;" style="whiteSpace=wrap;html=1;" vertex="1" parent="1">
          <mxGeometry x="180" y="500" width="107.18" height="30" as="geometry" />
        </mxCell>
        <mxCell id="gAhSIkeBQU7hhcyOCbbC-44" style="edgeStyle=orthogonalEdgeStyle;rounded=0;orthogonalLoop=1;jettySize=auto;html=1;exitX=1;exitY=0.25;exitDx=0;exitDy=0;entryX=0;entryY=0.25;entryDx=0;entryDy=0;" edge="1" parent="1" source="gAhSIkeBQU7hhcyOCbbC-39" target="gAhSIkeBQU7hhcyOCbbC-43">
          <mxGeometry relative="1" as="geometry" />
        </mxCell>
        <mxCell id="gAhSIkeBQU7hhcyOCbbC-46" style="edgeStyle=orthogonalEdgeStyle;rounded=0;orthogonalLoop=1;jettySize=auto;html=1;exitX=1;exitY=0.75;exitDx=0;exitDy=0;entryX=0;entryY=0.75;entryDx=0;entryDy=0;" edge="1" parent="1" source="gAhSIkeBQU7hhcyOCbbC-39" target="gAhSIkeBQU7hhcyOCbbC-43">
          <mxGeometry relative="1" as="geometry" />
        </mxCell>
        <mxCell id="gAhSIkeBQU7hhcyOCbbC-39" value="&lt;span style=&quot;font-size: 14px;&quot;&gt;Подтверждение заказа&lt;/span&gt;" style="whiteSpace=wrap;html=1;" vertex="1" parent="1">
          <mxGeometry x="385" y="270" width="140" height="40" as="geometry" />
        </mxCell>
        <mxCell id="gAhSIkeBQU7hhcyOCbbC-42" value="" style="endArrow=none;html=1;rounded=0;entryX=0.25;entryY=0;entryDx=0;entryDy=0;exitX=0.469;exitY=1.002;exitDx=0;exitDy=0;exitPerimeter=0;" edge="1" parent="1">
          <mxGeometry width="50" height="50" relative="1" as="geometry">
            <mxPoint x="581.0700000000003" y="751.1800000000001" as="sourcePoint" />
            <mxPoint x="580" y="160" as="targetPoint" />
          </mxGeometry>
        </mxCell>
        <mxCell id="gAhSIkeBQU7hhcyOCbbC-54" style="edgeStyle=orthogonalEdgeStyle;rounded=0;orthogonalLoop=1;jettySize=auto;html=1;exitX=1;exitY=0.25;exitDx=0;exitDy=0;entryX=0;entryY=0.25;entryDx=0;entryDy=0;" edge="1" parent="1" source="gAhSIkeBQU7hhcyOCbbC-43" target="gAhSIkeBQU7hhcyOCbbC-50">
          <mxGeometry relative="1" as="geometry" />
        </mxCell>
        <mxCell id="gAhSIkeBQU7hhcyOCbbC-56" style="edgeStyle=orthogonalEdgeStyle;rounded=0;orthogonalLoop=1;jettySize=auto;html=1;endArrow=none;endFill=0;" edge="1" parent="1" source="gAhSIkeBQU7hhcyOCbbC-43">
          <mxGeometry relative="1" as="geometry">
            <mxPoint x="670" y="690" as="targetPoint" />
            <Array as="points">
              <mxPoint x="685" y="690" />
            </Array>
          </mxGeometry>
        </mxCell>
        <mxCell id="gAhSIkeBQU7hhcyOCbbC-43" value="&lt;span style=&quot;font-size: 14px;&quot;&gt;Готовка заказа&lt;/span&gt;" style="whiteSpace=wrap;html=1;" vertex="1" parent="1">
          <mxGeometry x="615" y="270" width="140" height="40" as="geometry" />
        </mxCell>
        <mxCell id="gAhSIkeBQU7hhcyOCbbC-49" style="edgeStyle=orthogonalEdgeStyle;rounded=0;orthogonalLoop=1;jettySize=auto;html=1;entryX=0.5;entryY=0;entryDx=0;entryDy=0;" edge="1" parent="1" source="gAhSIkeBQU7hhcyOCbbC-47" target="gAhSIkeBQU7hhcyOCbbC-48">
          <mxGeometry relative="1" as="geometry" />
        </mxCell>
        <mxCell id="gAhSIkeBQU7hhcyOCbbC-47" value="&lt;span style=&quot;font-size: 14px;&quot;&gt;Получение заказа&lt;/span&gt;" style="whiteSpace=wrap;html=1;" vertex="1" parent="1">
          <mxGeometry x="100.01" y="670" width="140" height="40" as="geometry" />
        </mxCell>
        <mxCell id="gAhSIkeBQU7hhcyOCbbC-48" value="" style="ellipse;html=1;shape=endState;fillColor=#000000;strokeColor=#ff0000;" vertex="1" parent="1">
          <mxGeometry x="155.01" y="740" width="30" height="30" as="geometry" />
        </mxCell>
        <mxCell id="gAhSIkeBQU7hhcyOCbbC-55" style="edgeStyle=orthogonalEdgeStyle;rounded=0;orthogonalLoop=1;jettySize=auto;html=1;entryX=1;entryY=0.5;entryDx=0;entryDy=0;" edge="1" parent="1" source="gAhSIkeBQU7hhcyOCbbC-50" target="gAhSIkeBQU7hhcyOCbbC-47">
          <mxGeometry relative="1" as="geometry">
            <Array as="points">
              <mxPoint x="892" y="690" />
            </Array>
          </mxGeometry>
        </mxCell>
        <mxCell id="gAhSIkeBQU7hhcyOCbbC-50" value="&lt;span style=&quot;font-size: 14px;&quot;&gt;Доставка&lt;/span&gt;" style="whiteSpace=wrap;html=1;" vertex="1" parent="1">
          <mxGeometry x="822" y="270" width="140" height="40" as="geometry" />
        </mxCell>
      </root>
    </mxGraphModel>
  </diagram>
</mxfile>
